# AST/ASF file generated using VICON BodyLanguage
# -----------------------------------------------
:version 1.10
:name VICON
:units
  mass 1.0
  length 0.45
  angle deg
:documentation
   .ast/.asf automatically generated from VICON data using
   VICON BodyBuilder and BodyLanguage model FoxedUp or BRILLIANT.MOD
:root
   order TX TY TZ RX RY RZ
   axis XYZ
   position 0 0 0  
   orientation 0 0 0 
:bonedata
  begin
     id 1 
     name lhipjoint
     direction 0.653368 -0.678499 0.335782 
     length 2.51848 
     axis 0 0 0  XYZ
  end
  begin
     id 2 
     name lfemur
     direction 0.34202 -0.939693 0  
     length 6.57749  
     axis 0 0 20  XYZ
    dof rx ry rz
    limits (-160.0 20.0)
           (-70.0 70.0)
           (-60.0 70.0)
  end
  begin
     id 3 
     name ltibia
     direction 0.34202 -0.939693 0   
     length 7.94618   
     axis 0 0 20   XYZ
    dof rx
    limits (-10.0 170.0)
  end
  begin
     id 4 
     name lfoot
     direction 0.0811271 -0.222895 0.971461   
     length 2.31339   
     axis -90 7.62852e-016 20   XYZ
    dof rx rz
    limits (-45.0 90.0)
           (-70.0 20.0)
  end
  begin
     id 5 
     name ltoes
     direction 1.53568e-011 -4.21885e-011 1   
     length 1.15935   
     axis -90 7.62852e-016 20   XYZ
    dof rx
    limits (-90.0 20.0)
  end
  begin
     id 6 
     name rhipjoint
     direction -0.640058 -0.688614 0.340788   
     length 2.48149  
     axis 0 0 0  XYZ 
  end
  begin
     id 7 
     name rfemur
     direction -0.34202 -0.939693 0   
     length 6.57875   
     axis 0 0 -20   XYZ
    dof rx ry rz
    limits (-160.0 20.0)
           (-70.0 70.0)
           (-70.0 60.0)
  end
  begin
     id 8 
     name rtibia
     direction -0.34202 -0.939693 0   
     length 7.977   
     axis 0 0 -20   XYZ
    dof rx
    limits (-10.0 170.0)
 end
 begin
     id 9 
     name rfoot
     direction -0.0979793 -0.269196 0.958089   
     length 2.19857  
     axis -90 -7.62852e-016 -20   XYZ
    dof rx rz
    limits (-45.0 90.0)
           (-20.0 70.0)
  end
  begin
     id 10 
     name rtoes
     direction -1.53556e-011 -4.21868e-011 1   
     length 1.09838   
     axis -90 -7.62852e-016 -20   XYZ
    dof rx
    limits (-90.0 20.0)
  end
  begin
     id 11 
     name lowerback
     direction 0.0149039 0.998517 -0.0523597   
     length 2.10809   
     axis 0 0 0   XYZ
    dof rx ry rz
    limits (-20.0 45.0)
           (-30.0 30.0)
           (-30.0 30.0)
  end
  begin
     id 12 
     name upperback
     direction -0.00882659 0.999418 -0.0329624   
     length 2.1102   
     axis 0 0 0   XYZ
    dof rx ry rz
    limits (-20.0 45.0)
           (-30.0 30.0)
           (-30.0 30.0)
  end
  begin
     id 13 
     name thorax
     direction -0.0165585 0.999826 -0.0085833   
     length 2.11039   
     axis 0 0 0   XYZ
    dof rx ry rz
    limits (-20.0 45.0)
           (-30.0 30.0)
           (-30.0 30.0)
  end
  begin
     id 14 
     name lowerneck
     direction -0.0130877 0.999911 0.00260353   
     length 1.73253   
     axis 0 0 0   XYZ
    dof rx ry rz
    limits (-20.0 45.0)
           (-30.0 30.0)
           (-30.0 30.0)
  end
  begin
     id 15 
     name upperneck
     direction -0.0348454 0.928205 -0.370435   
     length 1.66692   
     axis 0 0 0   XYZ
    dof rx ry rz
    limits (-20.0 45.0)
           (-30.0 30.0)
           (-30.0 30.0)
  end
  begin
     id 16
     name head
     direction -0.00807754 0.992494 -0.122026  
     length 1.72765  
     axis 0 0 0   XYZ
    dof rx ry rz
    limits (-20.0 45.0)
           (-30.0 30.0)
           (-30.0 30.0)
  end
  begin
     id 17 
     name lclavicle
     direction 0.987582 0.144023 0.0627671  
     length 3.49235  
     axis 0 0 0   XYZ
    dof ry rz
    limits (-20.0 10.0)
           (0.0 20.0)
  end
  begin
     id 18 
     name lhumerus
     direction 1 -4.48958e-011 -1.45183e-018   
     length 5.41917   
     axis 180 -30 -90   XYZ
    dof rx ry rz
    limits (-60.0 90.0)
           (-90.0 90.0)
           (-90.0 90.0)
  end
  begin
     id 19
     name lradius
     direction 1 -4.48999e-011 5.75106e-027   
     length 2.44373   
     axis 180 -30 -90   XYZ
    dof rx
    limits (-10.0 170.0)
  end
  begin
     id 20
     name lwrist
     direction 1 -4.48987e-011 1.53461e-026   
     length 1.22186   
     axis -1.09697e-014 90 90   XYZ
    dof ry
    limits (-180.0 0.0)
 end
  begin
     id 21 
     name lhand
     direction 1 -4.48881e-011 3.06923e-026   
     length 0.727502   
     axis -1.95843e-014 90 90   XYZ
    dof rx rz
    limits (-90.0 90.0)
           (-45.0 45.0)
  end
  begin
     id 22 
     name lfingers
     direction 1 -4.48907e-011 6.13845e-026   
     length 0.586531   
     axis -3.91686e-014 90 90   XYZ
    dof rx
    limits (0.0 90.0)
  end
  begin
     id 23
     name lthumb
     direction 0.707107 -6.3487e-011 0.707107   
     length 0.842145   
     axis -90 45 2.85299e-015   XYZ
    dof rx rz
    limits (-45.0 45.0)
           (-45.0 45.0)
  end
  begin
     id 24 
     name rclavicle
     direction -0.980998 0.169556 0.0943023   
     length 3.29272  
     axis 0 0 0   XYZ 
    dof ry rz
    limits (-10.0 20.0)
           (-20.0 0.0)
  end
  begin
     id 25 
     name rhumerus
     direction -1 -1.83355e-005 2.45537e-005  
     length 5.58976   
     axis 180 30 90   XYZ
    dof rx ry rz
    limits (-90.0 60.0)
           (-90.0 90.0)
           (-90.0 90.0)
  end
  begin
     id 26 
     name rradius
     direction -1 -4.48967e-011 5.97228e-027   
     length 2.4806   
     axis 180 30 90   XYZ
    dof rx
    limits (-10.0 170.0)
  end
  begin
     id 27 
     name rwrist
     direction -1 -4.48963e-011 1.53461e-026   
     length 1.2403   
     axis -1.09697e-014 -90 -90   XYZ
    dof ry
    limits (-180.0 0.0)
  end
  begin
     id 28
     name rhand
     direction -1 -4.48881e-011 3.06923e-026   
     length 0.816009   
     axis -1.95843e-014 -90 -90   XYZ
    dof rx rz
    limits (-90.0 90.0)
           (-45.0 45.0)
  end
  begin
     id 29
     name rfingers
     direction -1 -4.49018e-011 6.13845e-026   
     length 0.657887   
     axis -3.91686e-014 -90 -90   XYZ
    dof rx
    limits (0.0 90.0)
  end
  begin
     id 30
     name rthumb
     direction -0.707107 -6.34872e-011 0.707107   
     length 0.944599   
     axis -90 -45 -2.85299e-015   XYZ
    dof rx rz
    limits (-45.0 45.0)
           (-45.0 45.0)
  end
:hierarchy
  begin
    root lhipjoint rhipjoint lowerback
    lhipjoint lfemur
    lfemur ltibia
    ltibia lfoot
    lfoot ltoes
    rhipjoint rfemur
    rfemur rtibia
    rtibia rfoot
    rfoot rtoes
    lowerback upperback
    upperback thorax
    thorax lowerneck lclavicle rclavicle
    lowerneck upperneck
    upperneck head
    lclavicle lhumerus
    lhumerus lradius
    lradius lwrist
    lwrist lhand lthumb
    lhand lfingers
    rclavicle rhumerus
    rhumerus rradius
    rradius rwrist
    rwrist rhand rthumb
    rhand rfingers
  end

#!OML:ASF F:\VICON\USERDATA\INSTALL\rory3\rory3.ASF
:FULLY-SPECIFIED
:DEGREES
1
root 1.01254 16.5239 -34.8207 12.4295 1.23383 -0.941524
lowerback -4.15803 1.02589 -1.58627
upperback -3.23848 1.40983 -1.71542
thorax -0.989394 0.716381 -0.825246
lowerneck -14.5576 -3.43008 -1.94141
upperneck 39.1252 -7.25169 6.3994
head 17.0477 -2.3856 1.88663
rclavicle 5.86415e-015 -2.06736e-014
rhumerus -41.533 -3.682 -79.3252
rradius 32.927
rwrist -19.8069
rhand -4.36991 16.2661
rfingers 7.12502
rthumb 21.3987 -12.5722
lclavicle 5.86415e-015 -2.06736e-014
lhumerus -39.5666 24.8198 64.986
lradius 51.9591
lwrist -0.589217
lhand -0.913109 20.2969
lfingers 7.12502
lthumb 24.7155 48.7205
rfemur -32.982 -0.231072 22.4121
rtibia 61.0675
rfoot 0 0
rtoes 0
lfemur -23.3432 -9.63608 -22.465
ltibia 30.0825
lfoot -24.2814 21.2184
ltoes -4.32702
2
root 1.03164 16.512 -34.7282 12.4922 0.680776 -1.20238
lowerback -4.38382 0.924664 -1.55371
upperback -2.96777 1.28585 -1.27848
thorax -0.594445 0.655129 -0.391631
lowerneck -15.2851 -3.2064 -2.20857
upperneck 38.9078 -6.65582 6.03187
head 17.0567 -2.22129 1.86326
rclavicle -2.24627e-014 2.54444e-014
rhumerus -40.7776 -2.84528 -79.3936
rradius 32.9098
rwrist -19.0237
rhand -4.7971 16.0697
rfingers 7.12502
rthumb 20.9884 -12.8147
lclavicle -2.24627e-014 2.54444e-014
lhumerus -39.2059 25.915 65.3974
lradius 53.0585
lwrist -0.503882
lhand -1.44127 20.2785
lfingers 7.12502
lthumb 24.2092 48.7704
rfemur -34.1411 0.157587 22.5624
rtibia 60.2588
rfoot -6.30699 -20.1864
rtoes -1.89228
lfemur -23.1047 -9.6985 -22.3475
ltibia 30.1466
lfoot -24.3242 22.0342
ltoes -5.72676
3
root 1.04751 16.5073 -34.6194 12.0026 0.816827 -1.36912
lowerback -3.71868 1.02221 -1.11705
upperback -3.16232 1.38464 -1.33712
thorax -1.15368 0.699708 -0.708396
lowerneck -14.451 -3.27448 -2.157
upperneck 38.5872 -6.75999 6.0697
head 16.6771 -2.2754 1.85255
rclavicle -1.31695e-014 -8.74653e-015
rhumerus -41.5414 -3.49413 -79.3385
rradius 32.8985
rwrist -17.8653
rhand -5.14484 15.8258
rfingers 7.12502
rthumb 20.6542 -13.0952
lclavicle -1.31695e-014 -8.74653e-015
lhumerus -39.2412 25.0912 65.4913
lradius 53.9147
lwrist 0.0932367
lhand -1.98424 20.5584
lfingers 7.12502
lthumb 23.6885 49.1187
rfemur -34.3828 0.0723367 22.7916
rtibia 59.1469
rfoot -9.71242 -20.8456
rtoes 4.69772
lfemur -22.1021 -10.001 -22.3221
ltibia 30.1539
lfoot -25.0957 22.0265
ltoes -5.73675
4
root 1.03293 16.5113 -34.5524 11.9844 2.17588 -1.42203
lowerback -3.85822 0.334025 -1.42972
upperback -2.38539 0.492195 -0.841297
thorax -0.288579 0.256131 -0.0432329
lowerneck -15.9373 -3.11649 -2.22238
upperneck 38.1986 -6.36379 5.8065
head 16.8024 -2.13273 1.79075
rclavicle 5.46658e-016 1.82882e-014
rhumerus -39.7968 -3.18184 -79.3547
rradius 32.5345
rwrist -16.7759
rhand -5.52552 16.1453
rfingers 7.12502
rthumb 20.2884 -12.815
lclavicle 5.46658e-016 1.82882e-014
lhumerus -37.6862 26.5175 66.3228
lradius 54.5602
lwrist 0.263561
lhand -2.36863 20.3407
lfingers 7.12502
lthumb 23.3198 48.9483
rfemur -35.2358 -0.814407 23.2378
rtibia 58.0698
rfoot -12.1369 -21.4568
rtoes 7.00674
lfemur -22.0129 -10.0559 -22.0734
ltibia 30.3394
lfoot -25.095 20.94
ltoes -5.65306
5
root 1.063 16.5057 -34.4226 11.5542 1.24135 -1.73216
lowerback -3.79754 0.78118 -0.919431
upperback -2.61813 1.06858 -0.881592
thorax -0.556513 0.540161 -0.353442
lowerneck -14.2863 -3.21424 -2.29707
upperneck 37.67 -6.49567 5.94183
head 16.1301 -2.22479 1.84503
rclavicle 2.23633e-014 -1.07344e-014
rhumerus -41.0382 -3.33264 -79.3427
rradius 32.7266
rwrist -15.7624
rhand -5.80381 16.2944
rfingers 7.12502
rthumb 20.0209 -12.6941
lclavicle 2.23633e-014 -1.07344e-014
lhumerus -38.2015 25.4978 66.3692
lradius 55.5801
lwrist 1.03818
lhand -3.29788 20.8256
lfingers 7.12502
lthumb 22.4281 49.5435
rfemur -35.5171 -0.0127927 23.3023
rtibia 56.7859
rfoot -12.6919 -21.7615
rtoes 6.45176
lfemur -20.9293 -10.4566 -22.1086
ltibia 30.4329
lfoot -26.699 21.4647
ltoes -2.72362
6
root 1.03018 16.5056 -34.4175 12.8549 2.58374 -1.79446
lowerback -3.40888 0.179805 -1.31175
upperback -2.95758 0.268219 -0.465297
thorax -1.12593 0.152105 0.264532
lowerneck -16.2783 -3.23688 -2.29269
upperneck 37.9468 -6.44157 5.63916
head 16.7512 -2.19534 1.70237
rclavicle 1.63997e-015 2.78299e-015
rhumerus -40.1874 -3.1897 -79.3329
rradius 32.4758
rwrist -14.7794
rhand -5.70024 16.4754
rfingers 7.12502
rthumb 20.1205 -12.5027
lclavicle 1.63997e-015 2.78299e-015
lhumerus -37.2319 26.0038 66.9403
lradius 56.2143
lwrist 1.66347
lhand -4.09949 21.3664
lfingers 7.12502
lthumb 21.6584 50.175
rfemur -38.1302 -0.514014 23.6988
rtibia 55.5054
rfoot -13.3336 -22.4631
rtoes 7.55857
lfemur -22.6568 -10.4289 -21.4831
ltibia 30.5067
lfoot -25.3924 20.7033
ltoes -3.51957
7
root 1.06476 16.5037 -34.3002 12.6659 1.31265 -2.0902
lowerback -3.89704 0.658979 -0.922906
upperback -2.58783 0.907786 -0.470401
thorax -0.476446 0.462511 0.0660767
lowerneck -16.283 -3.25052 -2.04379
upperneck 37.392 -6.41971 5.43068
head 16.4349 -2.18864 1.55586
rclavicle -9.0447e-015 -3.18055e-015
rhumerus -39.8926 -3.58035 -79.2928
rradius 32.3047
rwrist -13.8211
rhand -5.75604 16.0264
rfingers 7.12502
rthumb 20.0669 -12.9573
lclavicle -9.0447e-015 -3.18055e-015
lhumerus -36.4241 25.9909 67.3852
lradius 56.8403
lwrist 1.95325
lhand -4.53166 21.7051
lfingers 7.12502
lthumb 21.2433 50.561
rfemur -38.5381 0.30296 23.6107
rtibia 53.8834
rfoot -13.7217 -22.1094
rtoes 5.89553
lfemur -21.7067 -10.1431 -21.6339
ltibia 30.3451
lfoot -26.4619 21.3178
ltoes -3.32853
8
root 1.08332 16.5076 -34.1836 12.3342 0.983927 -2.17129
lowerback -3.25857 0.811372 -0.807299
upperback -2.63879 1.09963 -0.455729
thorax -0.884751 0.558541 0.0120022
lowerneck -16.3529 -3.24536 -1.68946
upperneck 37.0449 -6.39804 5.15318
head 16.2405 -2.1727 1.36669
rclavicle -9.64106e-015 -6.36111e-015
rhumerus -40.0969 -3.84304 -79.2855
rradius 32.0049
rwrist -13.0356
rhand -6.01634 15.9259
rfingers 7.12502
rthumb 19.8166 -13.0838
lclavicle -9.64106e-015 -6.36111e-015
lhumerus -36.2127 25.6314 67.6046
lradius 57.6188
lwrist 2.44762
lhand -4.90255 22.0359
lfingers 7.12502
lthumb 20.887 50.9315
rfemur -38.6393 0.556299 23.4865
rtibia 52.089
rfoot -13.6839 -21.9265
rtoes 2.41472
lfemur -20.6198 -10.8184 -21.7604
ltibia 30.0327
lfoot -27.2796 22.1585
ltoes -3.27641
9
root 1.0918 16.5147 -34.0814 12.1958 0.785163 -2.17843
lowerback -3.38009 0.836778 -0.809282
upperback -2.52736 1.13599 -0.366517
thorax -0.704589 0.576642 0.108519
lowerneck -15.682 -3.19665 -1.83038
upperneck 36.3168 -6.2386 5.21198
head 15.707 -2.14665 1.44144
rclavicle -5.26779e-015 2.78299e-015
rhumerus -40.0677 -3.88012 -79.2216
rradius 31.5243
rwrist -12.4235
rhand -5.87747 16.335
rfingers 7.12502
rthumb 19.9501 -12.6609
lclavicle -5.26779e-015 2.78299e-015
lhumerus -35.874 25.7601 67.8244
lradius 58.2701
lwrist 2.9184
lhand -5.1426 22.2545
lfingers 7.12502
lthumb 20.6564 51.1753
rfemur -38.9431 0.863453 23.302
rtibia 50.0627
rfoot -11.9249 -21.8088
rtoes -5.46702
lfemur -19.7249 -11.0433 -21.9198
ltibia 29.4668
lfoot -27.2101 22.9039
ltoes -4.72466
10
root 1.09609 16.5335 -33.979 12.1409 1.07598 -2.26396
lowerback -2.99411 0.567087 -0.774254
upperback -2.55101 0.77246 -0.0859436
thorax -0.945075 0.397275 0.361969
lowerneck -16.2418 -3.12085 -2.19083
upperneck 36.4196 -5.98441 5.13447
head 15.8878 -2.08948 1.51245
rclavicle 8.44835e-016 8.74653e-015
rhumerus -40.0416 -3.34859 -79.2592
rradius 31.2249
rwrist -12.0183
rhand -5.82902 16.3497
rfingers 7.12502
rthumb 19.9967 -12.6413
lclavicle 8.44835e-016 8.74653e-015
lhumerus -35.7917 26.1703 67.9427
lradius 58.9947
lwrist 3.37511
lhand -5.33443 22.2532
lfingers 7.12502
lthumb 20.4721 51.1939
rfemur -39.1903 0.926979 23.2682
rtibia 47.889
rfoot -12.5511 -21.4867
rtoes -5.139
lfemur -18.8642 -10.6164 -21.9083
ltibia 28.6679
lfoot -26.3588 22.8998
ltoes -6.87731
11
root 1.09688 16.5418 -33.8881 12.1189 1.23037 -2.49121
lowerback -2.94516 0.523399 -0.880389
upperback -1.93021 0.719035 0.216866
thorax -0.340478 0.3691 0.733907
lowerneck -18.364 -3.214 -1.92318
upperneck 36.508 -6.08408 4.77036
head 16.4278 -2.09961 1.26189
rclavicle 4.91992e-015 1.59028e-015
rhumerus -38.75 -3.60771 -79.1469
rradius 30.7561
rwrist -11.6967
rhand -5.75739 16.2405
rfingers 7.12502
rthumb 20.0656 -12.7434
lclavicle 4.91992e-015 1.59028e-015
lhumerus -34.0255 26.4878 69.0219
lradius 59.625
lwrist 3.71332
lhand -5.43996 22.6552
lfingers 7.12502
lthumb 20.3706 51.6068
rfemur -39.4309 1.2691 23.3265
rtibia 45.5824
rfoot -12.7316 -21.2228
rtoes -6.12381
lfemur -18.121 -10.8421 -21.6771
ltibia 27.9658
lfoot -26.265 23.1588
ltoes -7.02486
12
root 1.09584 16.562 -33.7722 11.8481 1.976 -2.26193
lowerback -2.59787 0.354965 -0.87968
upperback -2.18147 0.490085 0.0651743
thorax -0.786435 0.256616 0.568703
lowerneck -17.2785 -3.31258 -1.81897
upperneck 36.182 -6.3116 4.93386
head 16.0135 -2.18413 1.2807
rclavicle 2.5842e-015 2.78299e-015
rhumerus -39.6212 -4.19048 -79.174
rradius 30.566
rwrist -11.3169
rhand -5.31921 15.9455
rfingers 7.12502
rthumb 20.4867 -12.9936
lclavicle 2.5842e-015 2.78299e-015
lhumerus -34.095 25.6212 68.8287
lradius 60.0708
lwrist 4.40379
lhand -4.58335 21.4389
lfingers 7.12502
lthumb 21.1937 50.3004
rfemur -39.1087 1.15273 22.9018
rtibia 43.1354
rfoot -13.1746 -20.9997
rtoes -7.18401
lfemur -16.893 -11.2636 -21.8928
ltibia 27.0512
lfoot -26.0786 22.9454
ltoes -7.35942
13
root 1.10398 16.5644 -33.6898 12.1718 0.983363 -2.37442
lowerback -2.62116 0.532339 -1.08529
upperback -2.50491 0.730964 0.359949
thorax -1.11602 0.385437 0.988328
lowerneck -16.5837 -3.21448 -2.29508
upperneck 35.8746 -5.97264 4.92471
head 15.6901 -2.13048 1.42766
rclavicle -2.73329e-015 -8.74653e-015
rhumerus -39.9381 -3.61171 -78.9996
rradius 30.5993
rwrist -11.1926
rhand -4.24351 14.7031
rfingers 7.12502
rthumb 21.5201 -14.1214
lclavicle -2.73329e-015 -8.74653e-015
lhumerus -34.3241 25.772 68.9729
lradius 60.651
lwrist 4.83127
lhand -1.98011 18.2324
lfingers 7.12502
lthumb 23.6925 46.7922
rfemur -39.7888 2.10824 22.5639
rtibia 40.6226
rfoot -12.9458 -20.1319
rtoes -8.64739
lfemur -16.3815 -10.289 -22.0351
ltibia 26.1365
lfoot -26.1059 23.0039
ltoes -7.08077
14
root 1.08336 16.5894 -33.5633 12.0784 1.85412 -2.44366
lowerback -2.59913 0.383036 -1.04864
upperback -2.64251 0.530799 0.355773
thorax -1.26415 0.286306 0.95963
lowerneck -16.4691 -3.27624 -1.95664
upperneck 35.8074 -6.1532 4.86429
head 15.624 -2.17044 1.30976
rclavicle 1.09829e-014 1.15295e-014
rhumerus -40.5697 -4.54452 -78.8087
rradius 30.3958
rwrist -10.7023
rhand -4.91672 13.3972
rfingers 7.12502
rthumb 20.8734 -15.4999
lclavicle 1.09829e-014 1.15295e-014
lhumerus -34.0177 24.8157 69.096
lradius 61.0321
lwrist 5.04688
lhand -2.27564 18.6421
lfingers 7.12502
lthumb 23.409 47.2383
rfemur -39.4767 2.41015 22.3512
rtibia 38.0642
rfoot -13.4344 -20.4927
rtoes -9.93415
lfemur -15.1379 -11.1288 -21.757
ltibia 24.897
lfoot -25.9323 23.0663
ltoes -7.528
